<svg width="512" height="512" viewBox="0 0 512 512" fill="none" xmlns="http://www.w3.org/2000/svg">
<g filter="url(#filter0_f_2_2)">
<path d="M159.349 403.791L165.881 407.654C193.311 423.903 224.76 432.495 256.834 432.512H256.902C355.397 432.512 435.558 352.524 435.598 254.209C435.616 206.567 417.047 161.767 383.306 128.067C349.566 94.3671 304.704 75.799 256.97 75.7789C158.399 75.7789 78.2382 155.758 78.2019 254.065C78.1873 287.753 87.6326 320.564 105.52 348.955L109.772 355.699L91.7158 421.491L159.349 403.791ZM40.0966 472.457L70.5994 361.298C51.7863 328.767 41.8885 291.86 41.9006 254.053C41.9488 135.772 138.39 39.543 256.902 39.543C314.412 39.571 368.391 61.9091 408.989 102.457C449.575 143.006 471.924 196.902 471.903 254.226C471.851 372.499 375.394 468.743 256.902 468.743C256.893 468.743 256.911 468.743 256.902 468.743H256.809C220.83 468.729 185.475 459.721 154.07 442.628L40.0966 472.457Z" fill="#B3B3B3"/>
</g>
<path d="M37.8876 470.252L68.3904 359.093C49.5774 326.562 39.6795 289.655 39.6916 251.848C39.7398 133.567 136.181 37.3382 254.693 37.3382C312.203 37.3662 366.182 59.7043 406.78 100.253C447.366 140.801 469.715 194.697 469.694 252.021C469.642 370.294 373.185 466.539 254.693 466.539C254.684 466.539 254.702 466.539 254.693 466.539H254.6C218.621 466.524 183.266 457.516 151.861 440.423L37.8876 470.252Z" fill="white"/>
<path d="M254.762 73.5746C156.19 73.5746 76.029 153.554 75.9928 251.86C75.9781 285.548 85.4239 318.359 103.311 346.75L107.563 353.495L89.5061 419.286L157.141 401.586L163.672 405.449C191.102 421.698 222.551 430.291 254.624 430.307H254.692C353.187 430.307 433.349 350.319 433.389 252.005C433.406 204.363 414.838 159.562 381.098 125.862C347.357 92.1623 302.495 73.5947 254.762 73.5746Z" fill="url(#paint0_linear_2_2)"/>
<path fill-rule="evenodd" clip-rule="evenodd" d="M200.96 162.167C196.933 153.24 192.697 153.059 188.871 152.903C185.739 152.77 182.155 152.778 178.575 152.778C174.991 152.778 169.172 154.12 164.252 159.486C159.327 164.851 145.447 177.821 145.447 204.202C145.447 230.583 164.699 256.072 167.381 259.653C170.066 263.23 204.544 319.095 259.151 340.585C304.528 358.446 313.762 354.893 323.615 354.001C333.465 353.108 355.399 341.031 359.872 328.512C364.35 315.992 364.35 305.265 363.009 303.023C361.664 300.784 358.084 299.446 352.709 296.765C347.337 294.084 320.925 281.111 316.001 279.322C311.076 277.534 307.496 276.642 303.912 282.007C300.332 287.373 290.044 299.446 286.907 303.023C283.774 306.604 280.642 307.05 275.266 304.369C269.894 301.68 252.591 296.026 232.067 277.759C216.096 263.548 205.317 245.996 202.18 240.631C199.047 235.265 201.846 232.364 204.54 229.691C206.952 227.287 209.911 223.429 212.601 220.298C215.279 217.167 216.177 214.933 217.965 211.36C219.757 207.779 218.863 204.648 217.518 201.967C216.177 199.287 205.736 172.769 200.96 162.167Z" fill="white"/>
<defs>
<filter id="filter0_f_2_2" x="13.4078" y="12.8542" width="485.184" height="486.292" filterUnits="userSpaceOnUse" color-interpolation-filters="sRGB">
<feFlood flood-opacity="0" result="BackgroundImageFix"/>
<feBlend mode="normal" in="SourceGraphic" in2="BackgroundImageFix" result="shape"/>
<feGaussianBlur stdDeviation="13.3444" result="effect1_foregroundBlur_2_2"/>
</filter>
<linearGradient id="paint0_linear_2_2" x1="251.053" y1="94.9823" x2="252.858" y2="399.83" gradientUnits="userSpaceOnUse">
<stop stop-color="#57D163"/>
<stop offset="1" stop-color="#23B33A"/>
</linearGradient>
</defs>
</svg>
